<svg width="76" height="26" viewBox="0 0 76 26" fill="none" xmlns="http://www.w3.org/2000/svg">
<rect x="0.5" y="0.5" width="75" height="25" rx="7.5" fill="white"/>
<rect x="0.5" y="0.5" width="75" height="25" rx="7.5" stroke="#542F1A"/>
<path d="M22.0762 6.91211V9.71484H23.8535V10.7949H22.0762V13.4473H20.7773V6.91211H22.0762ZM12.998 13.0781V7.69141H18.4395V8.75781H14.2832V12.0117C16.6689 11.998 18.0088 11.9297 19.5469 11.6016L19.6973 12.6543C18.043 13.0029 16.5938 13.0713 13.9688 13.0781H12.998ZM14.2285 18.9707V14.0898H15.5137V15.4844H20.7773V14.0898H22.0762V18.9707H14.2285ZM15.5137 17.918H20.7773V16.5098H15.5137V17.918ZM34.7637 6.92578V15.9766H33.4648V12.791H30.7852V13.9395H25.1387V7.73242H26.4375V9.81055H29.5V7.73242H30.7852V9.09961H33.4648V6.92578H34.7637ZM26.4375 12.8867H29.5V10.8086H26.4375V12.8867ZM26.7656 18.9023V15.0879H28.0781V17.8496H35.0371V18.9023H26.7656ZM30.7852 11.7383H33.4648V10.166H30.7852V11.7383ZM43.7871 7.45898C45.5781 7.45898 46.8359 8.44336 46.8496 9.90625C46.8359 11.1504 45.8926 12.0596 44.4707 12.2852V13.3789C45.5508 13.3174 46.6445 13.2148 47.6562 13.0645L47.752 14.0215C45.1816 14.4863 42.2969 14.5342 40.1914 14.5273L40.0547 13.4746C40.9707 13.4814 42.0439 13.4746 43.1719 13.4336V12.2988C41.709 12.0938 40.7314 11.1709 40.7383 9.90625C40.7314 8.44336 41.9893 7.45898 43.7871 7.45898ZM41.791 18.9023V15.4707H43.0898V17.8359H50.1445V18.9023H41.791ZM41.9551 9.90625C41.9414 10.7744 42.707 11.3418 43.7871 11.3418C44.874 11.3418 45.6191 10.7744 45.6191 9.90625C45.6191 9.01758 44.874 8.45703 43.7871 8.45703C42.707 8.45703 41.9414 9.01758 41.9551 9.90625ZM48.4082 16.291V6.92578H49.707V10.9727H51.457V12.0664H49.707V16.291H48.4082ZM63.3789 16.6055V17.6992H52.168V16.6055H55.2305V14.4453H53.5352V10.5488H60.7266V8.83984H53.5078V7.77344H62.0117V11.6016H54.8203V13.3789H62.2988V14.4453H60.4395V16.6055H63.3789ZM56.4883 16.6055H59.168V14.4453H56.4883V16.6055Z" fill="#542F1A"/>
</svg>
