<svg width="61" height="26" viewBox="0 0 61 26" fill="none" xmlns="http://www.w3.org/2000/svg">
<rect x="0.5" y="0.5" width="60" height="25" rx="7.5" fill="white"/>
<rect x="0.5" y="0.5" width="60" height="25" rx="7.5" stroke="#818181"/>
<path d="M18.877 8.08789V16.1406H13.1348V8.08789H18.877ZM14.4199 15.0879H17.6191V9.11328H14.4199V15.0879ZM21.2969 19.1895V6.91211H22.5957V19.1895H21.2969ZM34.1758 6.91211V9.71484H35.9531V10.7949H34.1758V13.4473H32.877V6.91211H34.1758ZM25.0977 13.0781V7.69141H30.5391V8.75781H26.3828V12.0117C28.7686 11.998 30.1084 11.9297 31.6465 11.6016L31.7969 12.6543C30.1426 13.0029 28.6934 13.0713 26.0684 13.0781H25.0977ZM26.3281 18.9707V14.0898H27.6133V15.4844H32.877V14.0898H34.1758V18.9707H26.3281ZM27.6133 17.918H32.877V16.5098H27.6133V17.918ZM46.8633 6.92578V15.9766H45.5645V12.791H42.8848V13.9395H37.2383V7.73242H38.5371V9.81055H41.5996V7.73242H42.8848V9.09961H45.5645V6.92578H46.8633ZM38.5371 12.8867H41.5996V10.8086H38.5371V12.8867ZM38.8652 18.9023V15.0879H40.1777V17.8496H47.1367V18.9023H38.8652ZM42.8848 11.7383H45.5645V10.166H42.8848V11.7383Z" fill="#818181"/>
</svg>
